<?xml version="1.0" standalone="no"?>
<!DOCTYPE svg PUBLIC "-//W3C//DTD SVG 1.1//EN" "http://www.w3.org/Graphics/SVG/1.1/DTD/svg11.dtd" >
<svg>
<metadata>
Created by FontForge 20090622 at Thu Mar 15 17:50:29 2018
 By deploy user
Copyright 2014 Adobe Systems Incorporated. All rights reserved.
</metadata>
<defs>
<font id="Blanka-Regular" horiz-adv-x="641" >
  <font-face 
    font-family="Blanka"
    font-weight="400"
    font-stretch="normal"
    units-per-em="1000"
    panose-1="0 0 0 0 0 0 0 0 0 0"
    ascent="1000"
    descent="0"
    x-height="800"
    cap-height="800"
    bbox="-0.315789 -0.5 987 800"
    underline-thickness="50"
    underline-position="-50"
    unicode-range="U+0020-U+2212"
  />
<missing-glyph horiz-adv-x="250" 
 />
    <glyph glyph-name=".notdef" horiz-adv-x="250" 
 />
    <glyph glyph-name=".null" horiz-adv-x="0" 
 />
    <glyph glyph-name="nonmarkingreturn" horiz-adv-x="333" 
 />
    <glyph glyph-name="space" unicode=" " horiz-adv-x="250" 
 />
    <glyph glyph-name="exclam" unicode="!" horiz-adv-x="167" 
d="M159 77q0 -32 -23.5 -54.5t-57.5 -22.5q-32 0 -55 23t-23 54t23 54.5t55 23.5q34 0 57.5 -23t23.5 -55zM19 750h121q10 0 10 -8v-514q0 -9 -10 -9h-121q-11 0 -11 9v514q0 8 11 8z" />
    <glyph glyph-name="numbersign" unicode="#" horiz-adv-x="704" 
d="M631 446h-83l-16 -54l-18 -61.5t-15 -54.5h79q6 0 9 -3t2 -8l-30 -106q-2 -6 -11 -6h-83l-42 -147q-2 -6 -10 -6h-111q-13 0 -11 11l41 142h-100l-41 -147q-2 -6 -11 -6h-110q-5 0 -8 3.5t-2 7.5l39 142h-89q-5 0 -8 3.5t-2 7.5l30 106q2 6 11 6h92q7 27 15 54.5l18 61.5
l16 54h-90q-5 0 -8 3.5t-2 7.5l29 104q2 6 10 6h93l51 177q2 6 10 6h111q5 0 8 -3.5t2 -7.5l-49 -172h101l50 177q2 6 11 6h110q5 0 8.5 -3.5t2.5 -7.5l-50 -172h80q5 0 8 -3.5t2 -7.5l-29 -103q-2 -7 -10 -7zM373 262l58 198h-122l-58 -198h122z" />
    <glyph glyph-name="parenleft" unicode="(" horiz-adv-x="269" 
d="M104 0l-10 4q-94 177 -94 374q0 190 95 368q4 4 10 4h142q6 0 8.5 -4t-1.5 -9q-111 -171 -111 -358q0 -199 110 -366q4 -5 1.5 -9t-8.5 -4h-142z" />
    <glyph glyph-name="parenright" unicode=")" horiz-adv-x="271" 
d="M154 750l9 -4q47 -90 70 -182q25 -95 25 -191q0 -189 -96 -369q-2 -4 -9 -4h-142q-7 0 -10 4t1 9q113 172 113 358q0 72 -21 159q-31 118 -91 207q-4 5 -1 9t10 4h142z" />
    <glyph glyph-name="plus" unicode="+" horiz-adv-x="521" 
d="M496 311v-120q0 -9 -12 -9h-168v-172q0 -10 -12 -10h-120q-12 0 -12 10v172h-160q-12 0 -12 9v120q0 10 12 10h160v169q0 10 12 10h120q12 0 12 -10v-169h168q12 0 12 -10z" />
    <glyph glyph-name="comma" unicode="," horiz-adv-x="1000" 
 />
    <glyph glyph-name="hyphen" unicode="-" horiz-adv-x="586" 
d="M487 559v-108q0 -8 -9 -8h-358q-11 0 -11 8v108q0 9 11 9h358q9 0 9 -9z" />
    <glyph glyph-name="period" unicode="." horiz-adv-x="151" 
d="M144 70q0 -29 -21 -49.5t-52 -20.5q-29 0 -50 20.5t-21 49.5t21 50t50 21q30 0 51.5 -21t21.5 -50z" />
    <glyph glyph-name="slash" unicode="/" horiz-adv-x="509" 
d="M350 750h125q14 0 9 -12l-343 -733q-3 -5 -9 -5h-122q-14 0 -9 12l339 733q2 5 10 5z" />
    <glyph glyph-name="zero" unicode="0" horiz-adv-x="488" 
d="M232 0q-94 0 -163 59.5t-69 164.5v352q0 104 69 164t163 60t163 -60t69 -164v-352q0 -105 -69 -164.5t-163 -59.5zM232 669q-34 0 -58.5 -22.5t-24.5 -62.5v-365q0 -40 25 -63t58 -23q34 0 59 23t25 63v365q0 40 -25 62.5t-59 22.5z" />
    <glyph glyph-name="one" unicode="1" horiz-adv-x="328" 
d="M312 791v-782q0 -9 -10 -9h-132q-10 0 -10 9v620q-20 -7 -55.5 -20.5l-46.5 -17.5q-10 -2 -13 6l-44 93q-3 8 5 12l181 98h115q10 0 10 -9z" />
    <glyph glyph-name="two" unicode="2" horiz-adv-x="496" 
d="M473 138v-129q0 -9 -12 -9h-450q-11 0 -11 9v119l279 384q27 37 27 71q0 30 -20 50t-50 20q-34 0 -59.5 -21.5t-25.5 -62.5q0 -8 -11 -8h-121q-11 0 -11 8q0 102 58 166.5t170 64.5q90 0 158.5 -60t68.5 -149q0 -79 -57 -153l-220 -291h275q12 0 12 -9z" />
    <glyph glyph-name="three" unicode="3" horiz-adv-x="527" 
d="M123 391l156 267h-242q-11 0 -11 9v124q0 9 11 9h453q7 0 10 -4t0 -10l-166 -292q78 -23 120.5 -88t42.5 -160q0 -122 -74 -184t-181 -62q-100 0 -171 64.5t-71 168.5q0 9 11 9h128q10 0 10 -9q0 -39 28 -63.5t65 -24.5q48 0 75.5 33t27.5 77q0 51 -29 84.5t-77 37.5
h-106q-7 0 -10 4.5t0 9.5z" />
    <glyph glyph-name="four" unicode="4" horiz-adv-x="499" 
d="M475 791v-782q0 -9 -11 -9h-130q-11 0 -11 9v228h-312q-11 0 -11 9v125l326 426q3 3 8 3h130q11 0 11 -9zM325 586l-173 -217h173v217z" />
    <glyph glyph-name="five" unicode="5" horiz-adv-x="509" 
d="M0 234q0 9 11 9h128q11 0 11 -9q0 -43 24.5 -65.5t61.5 -22.5q46 0 72 31.5t26 74.5q0 54 -25 89.5t-73 35.5h-219q-11 0 -11 9v405q0 9 11 9h415q12 0 12 -9v-120q0 -9 -12 -9h-275v-153h79q125 0 186.5 -70t61.5 -195q0 -111 -72.5 -177.5t-175.5 -66.5t-169.5 61.5
t-66.5 172.5z" />
    <glyph glyph-name="six" unicode="6" horiz-adv-x="492" 
d="M0 237q0 48 11 81l168 476q1 6 9 6h137q5 0 8 -4t1 -8l-114 -325q10 4 41 4q93 0 150.5 -69.5t57.5 -163.5q0 -97 -69.5 -165.5t-167.5 -68.5q-103 0 -167.5 69t-64.5 168zM140 233q0 -40 27.5 -68t65.5 -28q39 0 67 28t28 68t-28 68.5t-67 28.5q-38 0 -65.5 -28.5
t-27.5 -68.5z" />
    <glyph glyph-name="seven" unicode="7" horiz-adv-x="515" 
d="M37 13l242 643h-268q-11 0 -11 9v126q0 9 11 9h468q6 0 9.5 -4t0.5 -9l-295 -781q-2 -6 -9 -6h-139q-6 0 -9 4t0 9z" />
    <glyph glyph-name="eight" unicode="8" horiz-adv-x="491" 
d="M386 401q38 -32 59.5 -75.5t21.5 -88.5q0 -112 -69.5 -174.5t-164.5 -62.5q-94 0 -163.5 62.5t-69.5 174.5q0 44 21.5 90t55.5 75q-34 30 -55.5 74t-21.5 88q0 111 69.5 173.5t163.5 62.5t164 -62.5t70 -173.5q0 -46 -22 -91t-59 -72zM233 471q38 0 64.5 27t26.5 66
q0 47 -27 73t-64 26t-64 -26t-27 -73q0 -39 26.5 -66t64.5 -27zM233 140q35 0 61 25.5t26 71.5q0 38 -25.5 66.5t-61.5 28.5t-61.5 -28.5t-25.5 -66.5q0 -46 25.5 -71.5t61.5 -25.5z" />
    <glyph glyph-name="nine" unicode="9" horiz-adv-x="492" 
d="M469 563q0 -47 -13 -82l-166 -475q-2 -6 -10 -6h-136q-6 0 -9.5 3.5t-1.5 8.5l116 325q-12 -4 -41 -4q-93 0 -150.5 69.5t-57.5 163.5q0 97 69.5 165.5t166.5 68.5q103 0 168 -69t65 -168zM327 567q0 39 -27 66.5t-65 27.5t-64.5 -27.5t-26.5 -66.5t26.5 -67t64.5 -28
q37 0 64.5 28t27.5 67z" />
    <glyph glyph-name="colon" unicode=":" horiz-adv-x="176" 
d="M167 417q0 -33 -24 -57t-60 -24q-34 0 -58.5 24t-24.5 57q0 34 24.5 58.5t58.5 24.5q36 0 60 -24.5t24 -58.5zM167 81q0 -33 -24 -57t-60 -24q-34 0 -58.5 24t-24.5 57q0 34 24.5 58.5t58.5 24.5q36 0 60 -24.5t24 -58.5z" />
    <glyph glyph-name="semicolon" unicode=";" horiz-adv-x="153" 
d="M146 142q0 -39 -21.5 -80.5t-51.5 -59.5q-5 -4 -9.5 -1.5t-4.5 7.5v75q-25 3 -42 22t-17 45q0 28 20 47.5t49 19.5q39 0 58 -21t19 -54zM145 431q0 -28 -20.5 -47.5t-50.5 -19.5q-28 0 -48 19.5t-20 47.5t20 48.5t48 20.5q30 0 50.5 -20t20.5 -49z" />
    <glyph glyph-name="equal" unicode="=" horiz-adv-x="495" 
d="M472 365v-129q0 -9 -12 -9h-447q-5 0 -9 3t-4 6v129q0 10 13 10h447q12 0 12 -10zM472 139v-130q0 -9 -12 -9h-447q-13 0 -13 9v130q0 10 13 10h447q12 0 12 -10z" />
    <glyph glyph-name="question" unicode="?" horiz-adv-x="469" 
d="M446 525q0 -66 -49 -120.5t-118 -73.5v-120q0 -7 -10 -7h-108q-11 0 -11 7v218q0 8 12 8q77 -5 110.5 22.5t33.5 65.5q0 88 -86 88q-35 0 -57.5 -19t-22.5 -51q0 -8 -11 -8h-118q-11 0 -11 8q0 90 63.5 148.5t156.5 58.5q100 0 163 -59t63 -166zM219 150q32 0 55 -20
t23 -55t-24 -55t-57 -20q-31 0 -54 20t-23 55t24 55t56 20z" />
    <glyph glyph-name="at" unicode="@" horiz-adv-x="794" 
d="M567 374q0 -45 -14 -72h65v72q0 112 -70 178.5t-170 66.5q-111 0 -177.5 -72.5t-66.5 -172.5t67 -173.5t177 -73.5h357q11 0 11 -8v-111q0 -8 -11 -8h-357q-169 0 -273.5 109t-104.5 265t105 266t273 110q158 0 268 -102.5t110 -273.5v-179q0 -8 -10 -8h-368
q-79 0 -134 55t-55 132t55.5 132t133.5 55t133.5 -55t55.5 -132zM378 308q26 0 45 19t19 47t-19 47t-45 19t-45 -19.5t-19 -46.5t19 -46.5t45 -19.5z" />
    <glyph glyph-name="A" unicode="A" horiz-adv-x="660" 
d="M628 12q2 -4 -1 -8t-8 -4h-138q-7 0 -9 6l-158 446l-156 -446q-2 -6 -10 -6h-137q-7 0 -9.5 3.5t-0.5 8.5l303 782q2 6 10 6t10 -6z" />
    <glyph glyph-name="B" unicode="B" horiz-adv-x="582" 
d="M390 562q0 27 -12 46.5t-29.5 28.5t-35 14t-29.5 5l-12 1h-120v-183h120q5 0 13 0.5t28 5.5t35.5 13t28.5 26t13 43zM543 571q0 -126 -111 -171q56 -19 86.5 -61t33.5 -74l2 -32q0 -53 -16.5 -94.5t-45 -65.5t-58.5 -40t-65.5 -22.5t-56 -8.5t-40.5 -2h-119v146h119
q50 0 89.5 20t39.5 71q0 26 -13.5 45t-32.5 27t-37.5 12t-31.5 4h-14h-120h-152v466q0 9 11 9h261h15.5t37.5 -4t54 -11.5t57 -24.5t53.5 -40.5t38 -62t15.5 -86.5z" />
    <glyph glyph-name="C" unicode="C" 
d="M457 147h153v-138q0 -9 -11 -9h-130q-67 0 -126 8.5t-124.5 34.5t-111.5 68t-76.5 116.5t-30.5 172.5q0 74 16 134t42.5 101t65 71.5t78.5 48t89 28t90 14t88 3.5h130q11 0 11 -9v-314h-153v177q-138 7 -220.5 -55.5t-82.5 -198.5q0 -70 23 -121t55 -76.5t77.5 -39
t78 -16t69.5 -0.5z" />
    <glyph glyph-name="D" unicode="D" 
d="M142 800q68 0 124.5 -7t123.5 -32t112.5 -66.5t76.5 -117t31 -177.5q0 -98 -30.5 -172.5t-76.5 -116.5t-111 -68t-124 -34.5t-126 -8.5h-131q-11 0 -11 9v314h153v-176q37 -2 69.5 0.5t78 16t77.5 39t55 76.5t23 121q0 136 -82.5 198.5t-220.5 55.5v-177h-153v314
q0 9 11 9h131z" />
    <glyph glyph-name="E" unicode="E" horiz-adv-x="502" 
d="M380 149v-149h-369q-11 0 -11 9v782q0 9 11 9h369v-145h-227v-181h314q11 0 11 -9v-127q0 -9 -11 -9h-314v-180h227z" />
    <glyph glyph-name="F" unicode="F" horiz-adv-x="502" 
d="M467 474q11 0 11 -9v-127q0 -9 -11 -9h-314v-329h-1h-99h-42q-11 0 -11 9v782q0 9 11 9h369v-145h-227v-181h314z" />
    <glyph glyph-name="G" unicode="G" 
d="M610 653h-153q-37 2 -69.5 -0.5t-78 -16t-77.5 -39t-55 -76.5t-23 -121q0 -136 82.5 -198.5t220.5 -55.5v177v23h-154v153h154h153v-153v-23v-314q0 -9 -11 -9h-130q-47 0 -88 3.5t-90 14t-89 28t-78.5 48t-65 71.5t-42.5 101t-16 134q0 98 30.5 172.5t76.5 116.5
t111.5 68t124.5 34.5t126 8.5h130q11 0 11 -9v-138z" />
    <glyph glyph-name="H" unicode="H" horiz-adv-x="640" 
d="M153 453h-153v338q0 9 11 9h131q11 0 11 -9v-316v-22zM598 800q11 0 11 -9v-782q0 -9 -11 -9h-131q-11 0 -11 9v141h-303v-141q0 -9 -11 -9h-131q-11 0 -11 9v291h153v-1h303v27v149v316q0 9 11 9h131z" />
    <glyph glyph-name="I" unicode="I" horiz-adv-x="354" 
d="M326 137q11 0 11 -9v-119q0 -9 -11 -9h-315q-11 0 -11 9v119q0 9 11 9h82v283v243v137h153v-137v-243v-283h80z" />
    <glyph glyph-name="J" unicode="J" horiz-adv-x="367" 
d="M67 663q-11 0 -11 9v119q0 9 11 9h272q10 0 10 -9v-128h-152h-130zM197 526h152v-290q0 -48 -13 -87t-34.5 -63t-46.5 -42t-50.5 -26t-47 -12.5t-34.5 -5.5h-13h-99q-11 0 -11 9v130q0 9 11 9h99q39 0 60.5 22t23.5 44l3 22v290z" />
    <glyph glyph-name="K" unicode="K" horiz-adv-x="673" 
d="M638 15q4 -6 1.5 -10.5t-10.5 -4.5h-172q-6 0 -9 3l-233 288l-215 -242v742q0 9 11 9h132q10 0 10 -9v-364l301 370q3 3 9 3h163q8 0 11 -5t-2 -10l-318 -392z" />
    <glyph glyph-name="L" unicode="L" horiz-adv-x="466" 
d="M432 149q11 0 11 -10v-130q0 -9 -11 -9h-421q-11 0 -11 9v140h153h279zM153 302h-153v489q0 9 11 9h132q10 0 10 -9v-489z" />
    <glyph glyph-name="M" unicode="M" horiz-adv-x="912" 
d="M716 193v254l-204 -409q-2 -6 -9 -6h-123q-8 0 -10 6l-217 420v-449q0 -9 -11 -9h-132q-10 0 -10 9v782q0 9 10 9h134q8 0 10 -6l287 -586l273 586q4 6 11 6h132q11 0 11 -9v-598h-152z" />
    <glyph glyph-name="N" unicode="N" horiz-adv-x="707" 
d="M662 800q11 0 11 -9v-782q0 -9 -11 -9h-132q-8 0 -9 3l-368 527v-338h-153v599q0 9 10 9h133q7 0 9 -3l369 -527v521q0 9 12 9h129z" />
    <glyph glyph-name="O" unicode="O" horiz-adv-x="808" 
d="M460 398q0 -31 -22 -53t-53 -22t-53 22t-22 53q0 32 22 54t53 22t53 -22t22 -54zM770 401q0 -77 -24.5 -147.5t-71 -127.5t-121.5 -91.5t-167 -34.5q-94 0 -169 34t-121.5 91.5t-71 128t-24.5 147.5q0 76 24.5 146.5t71 127.5t121.5 91t169 34q92 0 167 -34t121.5 -91
t71 -127.5t24.5 -146.5zM620 398q0 106 -62 183.5t-172 77.5q-111 0 -173 -77.5t-62 -183.5q0 -105 62 -181.5t173 -76.5q110 0 172 76.5t62 181.5z" />
    <glyph glyph-name="P" unicode="P" horiz-adv-x="566" 
d="M269 800q15 0 32 -2t51.5 -8t64 -22t59 -41t46.5 -68t17 -99t-18 -99t-48.5 -67.5t-60.5 -40.5t-65 -22t-50.5 -7.5t-27.5 -1.5h-119v-313q0 -9 -10 -9h-130q-10 0 -10 9v461h150h119q14 0 28 2t37.5 9.5t38 27.5t14.5 51q0 30 -15 51t-38 29t-38 10.5t-27 2.5h-119h-150
v138q0 9 10 9h259z" />
    <glyph glyph-name="Q" unicode="Q" horiz-adv-x="817" 
d="M146 406q0 -104 66.5 -180t170.5 -76q54 0 112 28l-330 330q-19 -51 -19 -102zM622 406q0 105 -64 179t-175 74q-70 0 -126 -35l339 -339q26 55 26 121zM774 102q9 -6 0 -13l-86 -87q-8 -5 -16 0l-72 73q-101 -66 -217 -66q-168 0 -275.5 117t-107.5 280t105.5 278.5
t277.5 115.5q167 0 275.5 -116.5t108.5 -277.5q0 -59 -17.5 -121t-48.5 -109z" />
    <glyph glyph-name="R" unicode="R" horiz-adv-x="575" 
d="M546 13q2 -5 -0.5 -9t-8.5 -4h-143q-8 0 -10 6l-146 317h-86v-314q0 -9 -11 -9h-131q-10 0 -10 9v461h152h117q118 0 118 92q0 31 -14 51.5t-36.5 28.5t-38 10.5t-29.5 2.5h-117h-152v136q0 9 10 9h259q16 0 29.5 -0.5t43 -5.5t53 -13.5t52 -26t47.5 -42t32 -63.5t13 -87
q0 -162 -147 -215z" />
    <glyph glyph-name="S" unicode="S" horiz-adv-x="522" 
d="M367 444q62 -29 96 -84.5t34 -126.5q0 -107 -73 -170t-175 -63h-1v144h1q41 0 70.5 25t29.5 64q0 41 -31.5 68t-68.5 29q-61 0 -119 27q-130 60 -130 202q0 108 74 174.5t175 66.5q104 0 174 -63.5t71 -164.5q1 -2 -2.5 -5t-8.5 -3h-125q-11 0 -11 8q-1 41 -29 62.5
t-69 21.5q-43 0 -71.5 -25.5t-28.5 -71.5q0 -41 29.5 -64.5t70.5 -23.5q61 0 118 -27z" />
    <glyph glyph-name="T" unicode="T" horiz-adv-x="505" 
d="M165 510h152v-501q0 -9 -12 -9h-129q-11 0 -11 9v501zM11 663q-11 0 -11 9v119q0 9 11 9h459q11 0 11 -9v-119q0 -9 -11 -9h-459z" />
    <glyph glyph-name="U" unicode="U" horiz-adv-x="630" 
d="M590 800q10 0 10 -9v-524q0 -124 -84.5 -195.5t-215.5 -71.5q-127 0 -213.5 73t-86.5 194v388h151v-387q6 -57 48.5 -89t100.5 -32q61 0 105 31.5t44 88.5v524q0 9 11 9h130z" />
    <glyph glyph-name="V" unicode="V" horiz-adv-x="600" 
d="M417 651h154l-250 -646q-2 -5 -9 -5t-10 5l-301 783q-2 5 0.5 8.5t8.5 3.5h136q8 0 10 -6l156 -436z" />
    <glyph glyph-name="W" unicode="W" horiz-adv-x="1036" 
d="M831 653h156l-249 -647q-2 -6 -9.5 -6t-9.5 6l-226 593l-226 -593q-2 -6 -9.5 -6t-9.5 6l-248 647h156l101 -275l159 416q2 6 9 6h136q7 0 10 -6l158 -416z" />
    <glyph glyph-name="X" unicode="X" horiz-adv-x="778" 
d="M729 800q8 0 11 -5t-1 -10l-276 -385l177 -247h-186l-83 117l-191 -267q-2 -3 -9 -3h-160q-7 0 -10 5t2 10l274 385l-176 247h186l84 -117l189 267q2 3 9 3h160z" />
    <glyph glyph-name="Y" unicode="Y" horiz-adv-x="672" 
d="M454 647h186l-193 -271v-367q0 -9 -11 -9h-131q-11 0 -11 9v367l-292 409q-4 5 -1 10t11 5h158q7 0 10 -3l190 -267z" />
    <glyph glyph-name="Z" unicode="Z" horiz-adv-x="503" 
d="M468 148q11 0 11 -9v-130q0 -9 -12 -9h-454q-16 0 -11 13l55 135h411zM11 651q-11 0 -11 10v130q0 9 11 9h455q14 0 11 -13l-195 -486h-164l140 350h-247z" />
    <glyph glyph-name="a" unicode="a" horiz-adv-x="660" 
d="M628 12q2 -4 -1 -8t-8 -4h-138q-7 0 -9 6l-158 446l-156 -446q-2 -6 -10 -6h-137q-7 0 -9.5 3.5t-0.5 8.5l303 782q2 6 10 6t10 -6z" />
    <glyph glyph-name="b" unicode="b" horiz-adv-x="582" 
d="M390 562q0 27 -12 46.5t-29.5 28.5t-35 14t-29.5 5l-12 1h-120v-183h120q5 0 13 0.5t28 5.5t35.5 13t28.5 26t13 43zM543 571q0 -126 -111 -171q56 -19 86.5 -61t33.5 -74l2 -32q0 -53 -16.5 -94.5t-45 -65.5t-58.5 -40t-65.5 -22.5t-56 -8.5t-40.5 -2h-119v146h119
q50 0 89.5 20t39.5 71q0 26 -13.5 45t-32.5 27t-37.5 12t-31.5 4h-14h-120h-152v466q0 9 11 9h261h15.5t37.5 -4t54 -11.5t57 -24.5t53.5 -40.5t38 -62t15.5 -86.5z" />
    <glyph glyph-name="c" unicode="c" 
d="M457 147h153v-138q0 -9 -11 -9h-130q-67 0 -126 8.5t-124.5 34.5t-111.5 68t-76.5 116.5t-30.5 172.5q0 74 16 134t42.5 101t65 71.5t78.5 48t89 28t90 14t88 3.5h130q11 0 11 -9v-314h-153v177q-138 7 -220.5 -55.5t-82.5 -198.5q0 -70 23 -121t55 -76.5t77.5 -39
t78 -16t69.5 -0.5z" />
    <glyph glyph-name="d" unicode="d" 
d="M142 800q68 0 124.5 -7t123.5 -32t112.5 -66.5t76.5 -117t31 -177.5q0 -98 -30.5 -172.5t-76.5 -116.5t-111 -68t-124 -34.5t-126 -8.5h-131q-11 0 -11 9v314h153v-176q37 -2 69.5 0.5t78 16t77.5 39t55 76.5t23 121q0 136 -82.5 198.5t-220.5 55.5v-177h-153v314
q0 9 11 9h131z" />
    <glyph glyph-name="e" unicode="e" horiz-adv-x="502" 
d="M380 149v-149h-369q-11 0 -11 9v782q0 9 11 9h369v-145h-227v-181h314q11 0 11 -9v-127q0 -9 -11 -9h-314v-180h227z" />
    <glyph glyph-name="f" unicode="f" horiz-adv-x="502" 
d="M467 474q11 0 11 -9v-127q0 -9 -11 -9h-314v-329h-1h-99h-42q-11 0 -11 9v782q0 9 11 9h369v-145h-227v-181h314z" />
    <glyph glyph-name="g" unicode="g" 
d="M610 653h-153q-37 2 -69.5 -0.5t-78 -16t-77.5 -39t-55 -76.5t-23 -121q0 -136 82.5 -198.5t220.5 -55.5v177v23h-154v153h154h153v-153v-23v-314q0 -9 -11 -9h-130q-47 0 -88 3.5t-90 14t-89 28t-78.5 48t-65 71.5t-42.5 101t-16 134q0 98 30.5 172.5t76.5 116.5
t111.5 68t124.5 34.5t126 8.5h130q11 0 11 -9v-138z" />
    <glyph glyph-name="h" unicode="h" horiz-adv-x="640" 
d="M153 453h-153v338q0 9 11 9h131q11 0 11 -9v-316v-22zM598 800q11 0 11 -9v-782q0 -9 -11 -9h-131q-11 0 -11 9v141h-303v-141q0 -9 -11 -9h-131q-11 0 -11 9v291h153v-1h303v27v149v316q0 9 11 9h131z" />
    <glyph glyph-name="i" unicode="i" horiz-adv-x="354" 
d="M326 137q11 0 11 -9v-119q0 -9 -11 -9h-315q-11 0 -11 9v119q0 9 11 9h82v283v243v137h153v-137v-243v-283h80z" />
    <glyph glyph-name="j" unicode="j" horiz-adv-x="367" 
d="M67 663q-11 0 -11 9v119q0 9 11 9h272q10 0 10 -9v-128h-152h-130zM197 526h152v-290q0 -48 -13 -87t-34.5 -63t-46.5 -42t-50.5 -26t-47 -12.5t-34.5 -5.5h-13h-99q-11 0 -11 9v130q0 9 11 9h99q39 0 60.5 22t23.5 44l3 22v290z" />
    <glyph glyph-name="k" unicode="k" horiz-adv-x="673" 
d="M638 15q4 -6 1.5 -10.5t-10.5 -4.5h-172q-6 0 -9 3l-233 288l-215 -242v742q0 9 11 9h132q10 0 10 -9v-364l301 370q3 3 9 3h163q8 0 11 -5t-2 -10l-318 -392z" />
    <glyph glyph-name="l" unicode="l" horiz-adv-x="466" 
d="M432 149q11 0 11 -10v-130q0 -9 -11 -9h-421q-11 0 -11 9v140h153h279zM153 302h-153v489q0 9 11 9h132q10 0 10 -9v-489z" />
    <glyph glyph-name="m" unicode="m" horiz-adv-x="912" 
d="M716 193v254l-204 -409q-2 -6 -9 -6h-123q-8 0 -10 6l-217 420v-449q0 -9 -11 -9h-132q-10 0 -10 9v782q0 9 10 9h134q8 0 10 -6l287 -586l273 586q4 6 11 6h132q11 0 11 -9v-598h-152z" />
    <glyph glyph-name="n" unicode="n" horiz-adv-x="707" 
d="M662 800q11 0 11 -9v-782q0 -9 -11 -9h-132q-8 0 -9 3l-368 527v-338h-153v599q0 9 10 9h133q7 0 9 -3l369 -527v521q0 9 12 9h129z" />
    <glyph glyph-name="o" unicode="o" horiz-adv-x="808" 
d="M460 398q0 -31 -22 -53t-53 -22t-53 22t-22 53q0 32 22 54t53 22t53 -22t22 -54zM770 401q0 -77 -24.5 -147.5t-71 -127.5t-121.5 -91.5t-167 -34.5q-94 0 -169 34t-121.5 91.5t-71 128t-24.5 147.5q0 76 24.5 146.5t71 127.5t121.5 91t169 34q92 0 167 -34t121.5 -91
t71 -127.5t24.5 -146.5zM620 398q0 106 -62 183.5t-172 77.5q-111 0 -173 -77.5t-62 -183.5q0 -105 62 -181.5t173 -76.5q110 0 172 76.5t62 181.5z" />
    <glyph glyph-name="p" unicode="p" horiz-adv-x="566" 
d="M269 800q15 0 32 -2t51.5 -8t64 -22t59 -41t46.5 -68t17 -99t-18 -99t-48.5 -67.5t-60.5 -40.5t-65 -22t-50.5 -7.5t-27.5 -1.5h-119v-313q0 -9 -10 -9h-130q-10 0 -10 9v461h150h119q14 0 28 2t37.5 9.5t38 27.5t14.5 51q0 30 -15 51t-38 29t-38 10.5t-27 2.5h-119h-150
v138q0 9 10 9h259z" />
    <glyph glyph-name="q" unicode="q" horiz-adv-x="817" 
d="M146 406q0 -104 66.5 -180t170.5 -76q54 0 112 28l-330 330q-19 -51 -19 -102zM622 406q0 105 -64 179t-175 74q-70 0 -126 -35l339 -339q26 55 26 121zM774 102q9 -6 0 -13l-86 -87q-8 -5 -16 0l-72 73q-101 -66 -217 -66q-168 0 -275.5 117t-107.5 280t105.5 278.5
t277.5 115.5q167 0 275.5 -116.5t108.5 -277.5q0 -59 -17.5 -121t-48.5 -109z" />
    <glyph glyph-name="r" unicode="r" horiz-adv-x="575" 
d="M546 13q2 -5 -0.5 -9t-8.5 -4h-143q-8 0 -10 6l-146 317h-86v-314q0 -9 -11 -9h-131q-10 0 -10 9v461h152h117q118 0 118 92q0 31 -14 51.5t-36.5 28.5t-38 10.5t-29.5 2.5h-117h-152v136q0 9 10 9h259q16 0 29.5 -0.5t43 -5.5t53 -13.5t52 -26t47.5 -42t32 -63.5t13 -87
q0 -162 -147 -215z" />
    <glyph glyph-name="s" unicode="s" horiz-adv-x="522" 
d="M367 444q62 -29 96 -84.5t34 -126.5q0 -107 -73 -170t-175 -63h-1v144h1q41 0 70.5 25t29.5 64q0 41 -31.5 68t-68.5 29q-61 0 -119 27q-130 60 -130 202q0 108 74 174.5t175 66.5q104 0 174 -63.5t71 -164.5q1 -2 -2.5 -5t-8.5 -3h-125q-11 0 -11 8q-1 41 -29 62.5
t-69 21.5q-43 0 -71.5 -25.5t-28.5 -71.5q0 -41 29.5 -64.5t70.5 -23.5q61 0 118 -27z" />
    <glyph glyph-name="t" unicode="t" horiz-adv-x="505" 
d="M165 510h152v-501q0 -9 -12 -9h-129q-11 0 -11 9v501zM11 663q-11 0 -11 9v119q0 9 11 9h459q11 0 11 -9v-119q0 -9 -11 -9h-459z" />
    <glyph glyph-name="u" unicode="u" horiz-adv-x="630" 
d="M590 800q10 0 10 -9v-524q0 -124 -84.5 -195.5t-215.5 -71.5q-127 0 -213.5 73t-86.5 194v388h151v-387q6 -57 48.5 -89t100.5 -32q61 0 105 31.5t44 88.5v524q0 9 11 9h130z" />
    <glyph glyph-name="v" unicode="v" horiz-adv-x="600" 
d="M417 651h154l-250 -646q-2 -5 -9 -5t-10 5l-301 783q-2 5 0.5 8.5t8.5 3.5h136q8 0 10 -6l156 -436z" />
    <glyph glyph-name="w" unicode="w" horiz-adv-x="1036" 
d="M831 653h156l-249 -647q-2 -6 -9.5 -6t-9.5 6l-226 593l-226 -593q-2 -6 -9.5 -6t-9.5 6l-248 647h156l101 -275l159 416q2 6 9 6h136q7 0 10 -6l158 -416z" />
    <glyph glyph-name="x" unicode="x" horiz-adv-x="778" 
d="M729 800q8 0 11 -5t-1 -10l-276 -385l177 -247h-186l-83 117l-191 -267q-2 -3 -9 -3h-160q-7 0 -10 5t2 10l274 385l-176 247h186l84 -117l189 267q2 3 9 3h160z" />
    <glyph glyph-name="y" unicode="y" horiz-adv-x="672" 
d="M454 647h186l-193 -271v-367q0 -9 -11 -9h-131q-11 0 -11 9v367l-292 409q-4 5 -1 10t11 5h158q7 0 10 -3l190 -267z" />
    <glyph glyph-name="z" unicode="z" horiz-adv-x="503" 
d="M468 148q11 0 11 -9v-130q0 -9 -12 -9h-454q-16 0 -11 13l55 135h411zM11 651q-11 0 -11 10v130q0 9 11 9h455q14 0 11 -13l-195 -486h-164l140 350h-247z" />
    <glyph glyph-name="endash" unicode="&#x2013;" horiz-adv-x="586" 
d="M487 559v-108q0 -8 -9 -8h-358q-11 0 -11 8v108q0 9 11 9h358q9 0 9 -9z" />
    <glyph glyph-name="quotesinglbase" unicode="&#x201a;" horiz-adv-x="1000" 
 />
    <glyph glyph-name="minus" unicode="&#x2212;" horiz-adv-x="586" 
d="M487 559v-108q0 -8 -9 -8h-358q-11 0 -11 8v108q0 9 11 9h358q9 0 9 -9z" />
  </font>
</defs>
</svg>
